<svg xmlns="http://www.w3.org/2000/svg" width="1440" height="900" viewBox="0 0 1440 900">
 <rect width="1440" height="900" fill="#f3f1e9"/><rect width="1440" height="92" fill="#f8f6ef"/><path d="M0 92h1440" stroke="#d6d3c9"/>
 <circle cx="78" cy="46" r="23" fill="#3d695f"/><text x="66" y="51" fill="white" font-family="Arial" font-size="12">PR</text><text x="115" y="43" font-family="Arial" font-weight="700" font-size="17" fill="#1c2421">Paint Remix Lab</text><text x="115" y="61" font-family="Arial" font-size="9" letter-spacing="2" fill="#69716e">PERSONAL COLOR WORKSHOP</text>
 <g font-family="Arial" font-size="11" fill="#353d3a"><text x="780" y="48">01  PALETTE</text><text x="900" y="48">02  REMIX LAB</text><text x="1040" y="48">03  BEST OPTIONS</text><text x="1200" y="48">04  TEST RECIPE</text></g>
 <text x="72" y="178" font-family="Arial" font-size="11" letter-spacing="3" fill="#64706b">YOUR BASEMENT · PALETTE DIAGNOSIS</text><text x="72" y="260" font-family="Arial" font-weight="700" font-size="66" fill="#1c2421">Make the green feel</text><text x="72" y="330" font-family="Arial" font-weight="700" font-size="66" fill="#3d695f">meant to be here.</text>
 <text x="72" y="385" font-family="Arial" font-size="17" fill="#59605d">Keep Vining Ivy’s personality. Lower its blue-green intensity.</text><text x="72" y="414" font-family="Arial" font-size="17" fill="#59605d">Borrow Sharkskin’s softness or Saw Mill’s warmth.</text><rect x="72" y="458" width="222" height="54" fill="#1c2421"/><text x="92" y="491" font-family="Arial" font-size="13" fill="white">OPEN THE REMIX LAB   →</text>
 <g transform="translate(775 140)"><rect x="0" y="80" width="260" height="360" fill="#8b6f5c" transform="rotate(-7 130 260)"/><rect x="130" y="10" width="260" height="360" fill="#3d695f" transform="rotate(3 260 190)"/><rect x="280" y="100" width="260" height="360" fill="#9a9991" transform="rotate(8 410 280)"/><text x="205" y="350" fill="white" font-family="Arial" font-size="12">VINING IVY</text></g>
 <line x1="72" y1="610" x2="1368" y2="610" stroke="#d6d3c9"/><text x="72" y="659" font-family="Arial" font-size="11" letter-spacing="3" fill="#64706b">01 · STARTING POINT</text><text x="72" y="711" font-family="Arial" font-weight="700" font-size="42" fill="#1c2421">Three colors, two conversations</text>
 <g transform="translate(72 760)"><rect width="410" height="110" fill="#3d695f"/><rect x="430" width="410" height="110" fill="#9a9991"/><rect x="860" width="436" height="110" fill="#8b6f5c"/><g fill="white" font-family="Arial" font-size="14"><text x="18" y="92">Vining Ivy · estimated #3D695F</text><text x="448" y="92">Sharkskin · estimated #9A9991</text><text x="878" y="92">Saw Mill · estimated #8B6F5C</text></g></g>
</svg>
